# xmcd
#
# Track frame offsets: 
#        150
#        1133
#        22458
#        42353
#        68568
#        84325
#        102726
#        122264
#        139328
#        156098
#        174931
#        192363
#        206314
#        222769
#        236391
#
# Disc length: 3328 seconds
#
# Revision: 1
# Processed by: cddbd v1.5.2PL0 Copyright (c) Steve Scherf et al.
# Submitted via: ExactAudioCopyFreeDBPlugin 1.0
#
DISCID=c30cfe0f
DTITLE=Cool Uncle - Cool Uncle
DYEAR=2015
DGENRE=Rhythm and Blues
TTITLE0=Intro
TTITLE1=Game Over (ft Mayer Hawthorne)
TTITLE2=Breaking Up (ft Deniece Williams and Eric Biddines)
TTITLE3=Never Knew Love Before
TTITLE4=Mercy (ft Cee-Lo)
TTITLE5=Destiny
TTITLE6=Embrace the Night
TTITLE7=My Beloved
TTITLE8=Break Away (ft Jessie Ware)
TTITLE9=Miami Nights
TTITLE10=Lonely
TTITLE11=The Cat Came Back
TTITLE12=End of Days
TTITLE13=A Dream...
TTITLE14=Outro (ft JD8)
EXTD=
EXTT0=
EXTT1=
EXTT2=
EXTT3=
EXTT4=
EXTT5=
EXTT6=
EXTT7=
EXTT8=
EXTT9=
EXTT10=
EXTT11=
EXTT12=
EXTT13=
EXTT14=
PLAYORDER=
